# xmcd
#
# Track frame offsets: 
#        150
#        2360
#        14747
#        44262
#        57662
#        79200
#        94800
#        109610
#        127272
#        142632
#        154665
#
# Disc length: 2437 seconds
#
# Revision: 3
# Processed by: cddbd v1.5.1PL0 Copyright (c) Steve Scherf et al.
# Submitted via: ExactAudioCopy v0.95a5
#
DISCID=8909830b
DTITLE=Dan Fogelberg - High Country Snows
DYEAR=1985
DGENRE=Country
TTITLE0=Down The Road
TTITLE1=Mountain Pass
TTITLE2=Sutter's Mill
TTITLE3=Wolf Creek
TTITLE4=High Country Snows
TTITLE5=The Outlaw
TTITLE6=Shallow Rivers
TTITLE7=Go Down Easy
TTITLE8=Wandering Shepherd
TTITLE9=Think Of What You've Done
TTITLE10=The Higher You Climb
EXTD=(c)1985 CBS/Epic 01-026274-20\nKatalog: Epc 26274-2
EXTT0=
EXTT1=
EXTT2=
EXTT3=
EXTT4=
EXTT5=
EXTT6=
EXTT7=
EXTT8=
EXTT9=
EXTT10=
PLAYORDER=
